<?xml version="1.0" standalone="no"?>
<!DOCTYPE svg PUBLIC "-//W3C//DTD SVG 20010904//EN"
 "http://www.w3.org/TR/2001/REC-SVG-20010904/DTD/svg10.dtd">
<svg version="1.0" xmlns="http://www.w3.org/2000/svg"
 width="1024.000000pt" height="1024.000000pt" viewBox="0 0 1024.000000 1024.000000"
 preserveAspectRatio="xMidYMid meet">
<metadata>
Created by potrace 1.14, written by Peter Selinger 2001-2017
</metadata>
<g transform="translate(0.000000,1024.000000) scale(0.100000,-0.100000)"
fill="#000000" stroke="none">
<path d="M5090 7234 c-286 -53 -443 -118 -626 -255 -255 -191 -417 -442 -478
-741 -67 -328 -23 -609 134 -843 73 -111 235 -268 335 -328 100 -58 397 -164
635 -224 30 -8 105 -28 165 -45 61 -17 155 -41 210 -53 113 -26 277 -90 338
-132 133 -91 236 -241 258 -373 47 -284 -139 -624 -416 -761 -124 -60 -188
-74 -350 -74 -114 0 -156 5 -225 23 -118 32 -202 73 -282 138 -192 158 -288
360 -288 610 0 39 -3 85 -6 101 l-6 30 -266 6 c-146 3 -269 4 -272 2 -7 -4 5
-189 21 -310 43 -341 264 -695 554 -888 228 -151 430 -218 700 -234 329 -19
741 127 938 331 133 138 197 213 213 252 9 21 32 60 50 86 19 26 42 68 51 95
9 26 25 61 34 78 10 16 36 98 58 180 38 138 41 160 41 278 0 229 -45 386 -164
567 -160 244 -388 386 -806 500 -63 17 -221 62 -350 100 -129 38 -284 82 -343
99 -187 54 -276 112 -357 233 -61 92 -92 201 -93 328 -1 250 127 470 345 594
229 131 438 156 676 81 191 -61 320 -154 417 -300 92 -137 135 -288 135 -468
l0 -72 193 0 c105 -1 229 -4 275 -8 l82 -7 0 67 c0 115 -30 322 -62 423 -70
219 -210 438 -371 580 -183 161 -387 262 -633 315 -68 15 -412 29 -464 19z"/>
</g>
</svg>
